<?xml version="1.0" encoding="utf-8"?>
<!-- Generator: Adobe Illustrator 19.0.0, SVG Export Plug-In . SVG Version: 6.00 Build 0)  -->
<svg version="1.1" id="Layer_1" xmlns="http://www.w3.org/2000/svg" xmlns:xlink="http://www.w3.org/1999/xlink" x="0px" y="0px"
	 viewBox="0 0 114 114" style="enable-background:new 0 0 114 114;" xml:space="preserve">
<style type="text/css">
	.st0{fill:#231F20;}
</style>
<g>
	<path class="st0" d="M109,28.5C109,28.5,109,28.4,109,28.5L109,28.5L77.3,12.6c-0.2-0.1-0.4-0.2-0.7-0.2c-0.3-0.1-0.6-0.1-0.9-0.1
		c-1.2,0-2.4,0.6-3.1,1.7L54.6,43.5l22.8,37.1L109.1,29C109.2,28.8,109.2,28.6,109,28.5z"/>
	<polygon class="st0" points="44.6,36.7 44.6,70.4 74.4,85.3 	"/>
	<path class="st0" d="M78.9,87.5l24.6,12.3c3.2,1.6,5.8,0.5,5.8-2.5V38.2L78.9,87.5z"/>
	<path class="st0" d="M39.4,28.5L8.5,13.1C8,12.8,7.4,12.7,7,12.7c-1.4,0-2.3,1-2.3,2.8v66.6c0,1.8,1.3,3.9,2.9,4.7l27.2,13.6
		c0.7,0.3,1.4,0.5,2,0.5c1.7,0,2.9-1.3,2.9-3.5V28.8C39.6,28.7,39.5,28.6,39.4,28.5z"/>
</g>
</svg>
