<?xml version="1.0" encoding="UTF-8" standalone="no"?>
<svg width="768px" height="577px" viewBox="0 0 768 577" version="1.1" xmlns="http://www.w3.org/2000/svg" xmlns:xlink="http://www.w3.org/1999/xlink">
    <!-- Generator: Sketch 3.8.3 (29802) - http://www.bohemiancoding.com/sketch -->
    <title>freshbooks</title>
    <desc>Created with Sketch.</desc>
    <defs></defs>
    <g id="Page-1" stroke="none" stroke-width="1" fill="none" fill-rule="evenodd">
        <g id="freshbooks" fill="#98BE28">
            <path d="M427.3,92.8 C157.8,83.7 101.2,370.7 90.8,447.5 C71.9,469.1 48.9,498.5 21,539 C8.4,557.8 0,555.7 0,555.7 C0,555.7 3.5,584.3 45.4,575.2 C45.4,575.2 70.5,516.6 104.7,467 C770.1,536.9 768,0.7 768,0.7 C768,0.7 684.9,100.5 427.3,92.8 L427.3,92.8 Z M398,259.7 C256.3,273.7 127.1,429.4 127.1,429.4 C127.1,429.4 255.6,235.3 407.8,219.9 C561.4,204.5 656.4,127.7 656.4,127.7 C656.4,127.7 562,242.9 398,259.7 L398,259.7 Z" id="Shape"></path>
        </g>
    </g>
</svg>