<?xml version="1.0" encoding="UTF-8" standalone="no"?>
<svg width="32px" height="32px" viewBox="0 0 32 32" version="1.1" xmlns="http://www.w3.org/2000/svg" xmlns:xlink="http://www.w3.org/1999/xlink">
    <!-- Generator: Sketch 3.8.3 (29802) - http://www.bohemiancoding.com/sketch -->
    <title>Group</title>
    <desc>Created with Sketch.</desc>
    <defs>
        <path d="M32,16 C32,24.8 24.8,32 16,32 C7.2,32 0,24.9 0,16 C0,7.2 7.2,0 16,0 C24.8,0 32,7.2 32,16" id="path-1"></path>
    </defs>
    <g id="Page-1" stroke="none" stroke-width="1" fill="none" fill-rule="evenodd">
        <g id="hackthenorth">
            <g id="Group">
                <g id="XMLID_100_">
                    <mask id="mask-2" fill="white">
                        <use xlink:href="#path-1"></use>
                    </mask>
                    <use id="XMLID_98_" fill="#00779C" xlink:href="#path-1"></use>
                    <g id="XMLID_101_" mask="url(#mask-2)">
                        <g transform="translate(-11.000000, -8.000000)">
                            <g id="XMLID_106_" transform="translate(8.000000, 0.000000)">
                                <path d="M19.9,23.6 L23.2,25.2 C23.5,25.4 23.9,25.3 24.2,25 L24.9,24.3 C25.1,24 25.2,23.7 25.1,23.3 L23.5,20 C24,19.1 24.4,18.1 24.7,17.1 L28,16 C28.3,15.9 28.6,15.6 28.6,15.2 L28.6,14.7 L28.6,14.2 C28.6,13.8 28.4,13.5 28,13.4 L24.6,12.2 C24.3,11.2 23.9,10.2 23.4,9.3 L25,6 C25.2,5.7 25.1,5.3 24.8,5 C24.6,4.8 24.4,4.6 24.1,4.3 C23.8,4.1 23.5,4 23.1,4.1 L19.8,5.7 C19,5.4 18,5 17,4.8 L15.8,1.4 C15.7,1 15.4,0.8 15,0.8 L14.5,0.8 L14,0.8 C13.6,0.8 13.3,1 13.2,1.4 L12.1,4.8 C11.1,5.1 10.1,5.5 9.2,6 L5.9,4.4 C5.6,4.2 5.2,4.3 5,4.5 C4.7,4.7 4.5,5 4.3,5.2 C4.1,5.4 4,5.8 4.1,6.1 L5.7,9.4 C5.2,10.3 4.8,11.3 4.5,12.3 L1.1,13.5 C0.8,13.6 0.5,13.9 0.5,14.3 L0.5,14.8 L0.5,15.3 C0.5,15.7 0.7,16 1.1,16.1 L4.5,17.3 C4.8,18.3 5.2,19.3 5.7,20.2 L4.1,23.5 C3.9,23.8 4,24.2 4.3,24.5 C4.5,24.6 4.7,24.8 5,25 C5.3,25.2 5.6,25.3 6,25.2 L9.3,23.6 C10.2,24.1 11.2,24.5 12.2,24.8 L13.4,28.2 C13.5,28.5 13.8,28.8 14.2,28.8 L14.7,28.8 L15.2,28.8 C15.6,28.8 15.9,28.6 16,28.2 L17.2,24.8 C18,24.6 19,24.2 19.9,23.6 L19.9,23.6 Z M10.3,14.9 C10.2,12.4 12.2,10.4 14.7,10.5 C16.9,10.6 18.7,12.4 18.8,14.6 C18.9,17.1 16.9,19.1 14.4,19 C12.2,18.9 10.4,17.1 10.3,14.9 L10.3,14.9 Z" id="XMLID_107_" fill="#00BCF6"></path>
                            </g>
                            <g id="XMLID_102_" transform="translate(21.000000, 26.000000)">
                                <path d="M15,4.1 L15.1,1.4 C15.1,1.2 15,0.9 14.8,0.9 C14.6,0.8 14.3,0.7 14.1,0.6 C13.9,0.5 13.6,0.6 13.5,0.8 L11.7,2.8 C11,2.7 10.2,2.7 9.4,2.8 L7.6,0.8 C7.4,0.6 7.2,0.6 7,0.6 C6.9,0.6 6.8,0.7 6.6,0.7 C6.5,0.7 6.4,0.8 6.2,0.9 C6,1 5.9,1.2 5.9,1.4 L6,4.1 C5.4,4.6 4.8,5.1 4.4,5.7 L1.7,5.6 C1.5,5.6 1.2,5.7 1.2,5.9 C1.1,6.1 1,6.4 0.9,6.6 C0.8,6.8 0.9,7.1 1.1,7.2 L3.1,9 C3,9.7 3,10.5 3.1,11.3 L1.1,13.1 C0.9,13.3 0.9,13.5 0.9,13.7 C0.9,13.8 1,13.9 1,14.1 C1,14.2 1.1,14.3 1.2,14.5 C1.3,14.7 1.5,14.8 1.7,14.8 L4.4,14.7 C4.9,15.3 5.4,15.9 6,16.3 L5.9,19 C5.9,19.2 6,19.5 6.2,19.5 C6.4,19.6 6.7,19.7 6.9,19.8 C7.1,19.9 7.4,19.8 7.5,19.6 L9.3,17.6 C10,17.7 10.8,17.7 11.6,17.6 L13.4,19.6 C13.6,19.8 13.8,19.8 14,19.8 C14.1,19.8 14.2,19.7 14.4,19.7 C14.5,19.7 14.6,19.6 14.8,19.5 C15,19.4 15.1,19.2 15.1,19 L15,16.3 C15.6,15.8 16.2,15.3 16.6,14.7 L19.3,14.8 C19.5,14.8 19.8,14.7 19.8,14.5 C19.9,14.3 20,14 20.1,13.8 C20.2,13.6 20.1,13.3 19.9,13.2 L17.9,11.4 C18,10.7 18,9.9 17.9,9.1 L19.9,7.3 C20.1,7.1 20.1,6.9 20.1,6.7 C20.1,6.6 20,6.5 20,6.3 C20,6.1 19.9,6.1 19.8,5.9 C19.7,5.7 19.5,5.6 19.3,5.6 L16.6,5.7 C16.1,5.1 15.6,4.5 15,4.1 L15,4.1 Z M11.7,13.1 C10.1,13.8 8.3,13 7.6,11.4 C6.9,9.8 7.7,8 9.3,7.3 C10.9,6.6 12.7,7.4 13.4,9 C14,10.6 13.3,12.4 11.7,13.1 L11.7,13.1 Z" id="XMLID_103_" fill="#00BCF6"></path>
                            </g>
                        </g>
                    </g>
                </g>
            </g>
        </g>
    </g>
</svg>