<?xml version="1.0" encoding="UTF-8" standalone="no"?>
<svg width="35px" height="53px" viewBox="0 0 35 53" version="1.1" xmlns="http://www.w3.org/2000/svg" xmlns:xlink="http://www.w3.org/1999/xlink">
    <!-- Generator: Sketch 3.8.3 (29802) - http://www.bohemiancoding.com/sketch -->
    <title>Group 21</title>
    <desc>Created with Sketch.</desc>
    <defs></defs>
    <g id="Page-1" stroke="none" stroke-width="1" fill="none" fill-rule="evenodd">
        <g id="Desktop-HD-Copy-2" transform="translate(-806.000000, -672.000000)">
            <g id="work" transform="translate(80.000000, 560.000000)">
                <g id="Group-11" transform="translate(0.000000, 98.000000)">
                    <g id="Group-10" transform="translate(352.000000, 0.000000)">
                        <g id="Group-7" transform="translate(352.000000, 0.000000)">
                            <g id="Group-5">
                                <g id="Group-21" transform="translate(22.000000, 14.000000)">
                                    <path d="M17.3674971,0.109113827 C14.18304,0.101550802 11.2001829,0.957547746 8.63218286,2.45365164 C6.08886857,0.987799847 3.14304,0.147616501 0.000411428572,0.156554622 L0.000411428572,17.5219481 C-0.0530742857,36.7120932 15.5112686,52.1991062 34.6324114,52.2534225 L34.6324114,17.5219481 L34.6324114,0.156554622 C31.4911543,0.147616501 28.54464,0.987799847 26.0020114,2.45365164 C23.4607543,0.974048892 20.51424,0.119427044 17.3674971,0.109113827 Z" id="Fill-19" fill="#000000"></path>
                                    <path d="M24.7392686,18.8468526 C22.00464,18.8399771 19.7938971,16.6102597 19.80144,13.8683193 C19.8034971,13.3581589 19.8823543,12.8638121 20.02704,12.40178 C20.41104,13.2660275 21.2722971,13.8717571 22.27824,13.8751948 C23.6448686,13.8793201 24.7564114,12.7716807 24.75984,11.401398 C24.7625829,10.3927655 24.1632686,9.52645531 23.3013257,9.13592819 C23.7648686,8.99291826 24.2572114,8.91728801 24.7673829,8.9186631 C27.5013257,8.92691367 29.71344,11.1552559 29.7052114,13.8971963 C29.6962971,16.6398243 27.4725257,18.8557907 24.7392686,18.8468526 M9.88532571,18.8049121 C7.15206857,18.7973491 4.93926857,16.5690069 4.94818286,13.8270665 C4.95504,11.0844385 7.18155429,8.86778457 9.91481143,8.87603514 C10.4242971,8.87741024 10.9145829,8.95579068 11.3781257,9.10086325 C10.5148114,9.48657754 9.91206857,10.3480749 9.90864,11.3580825 C9.90452571,12.7283652 11.0085257,13.8435676 12.3751543,13.8476929 C13.3804114,13.8497555 14.2450971,13.2495264 14.6359543,12.3859664 C14.7765257,12.8500611 14.85264,13.3430328 14.8512686,13.8545684 C14.8423543,16.5965088 12.6199543,18.8138503 9.88532571,18.8049121 M24.7735543,6.43592819 C20.8978971,6.42492743 17.7072686,9.39925898 17.3616686,13.1993354 L17.3287543,13.1539572 L17.2965257,13.1993354 C16.9714971,9.39719633 13.7993829,6.40430099 9.92166857,6.39330023 C5.81972571,6.38092437 2.48646857,9.70659282 2.47549714,13.8188159 C2.46246857,17.9324141 5.77721143,21.2759587 9.87915429,21.2869595 C11.3376686,21.2917723 12.6960686,20.8675554 13.8453257,20.141505 L17.2978971,23.6232468 L20.7717257,20.1621314 C21.91824,20.8936822 23.27184,21.3247746 24.73104,21.3295875 C28.8343543,21.3419633 32.1682971,18.0162949 32.18064,13.9047594 C32.1916114,9.79184874 28.8775543,6.44692895 24.7735543,6.43592819" id="Fill-20" fill="#FFFFFF"></path>
                                </g>
                            </g>
                        </g>
                    </g>
                </g>
            </g>
        </g>
    </g>
</svg>