<svg xmlns="http://www.w3.org/2000/svg" xmlns:xlink="http://www.w3.org/1999/xlink" xmlns:sketch="http://www.bohemiancoding.com/sketch/ns" width="57px" height="52px" viewBox="0 0 57 52" version="1.1"><!-- Generator: Sketch 3.2.2 (9983) - http://www.bohemiancoding.com/sketch --><title>Fill 1</title><desc>Created with Sketch.</desc><defs/><g stroke="none" stroke-width="1" fill="none" fill-rule="evenodd" sketch:type="MSPage"><g sketch:type="MSArtboardGroup" transform="translate(-392.000000, -63.000000)" fill="#4A4A4A"><g sketch:type="MSLayerGroup" transform="translate(392.000000, 63.000000)"><g sketch:type="MSShapeGroup"><path d="M29.0020714 0.4 L21.0726429 14.2 L36.9315 14.2 L29.0020714 0.4 Z M32.0077143 41 L30.7835 38.9 L19.43 19.2 L0.720857143 51.7 L7.12985714 51.7 L19.43 30.3 L31.7301429 51.7 L38.1391429 51.7 L32.0077143 41 Z M30.1620714 33.1 L32.8238571 37.7 L33.3665714 38.6 L38.1743571 30.3 L50.4745 51.7 L56.8835 51.7 L38.1743571 19.2 L30.1620714 33.1 Z M24.2377857 43.4 L23.6163571 44.4 L19.4672857 51.7 L25.8762857 51.7 L27.4422857 48.9 L24.2377857 43.4 Z"/></g></g></g></g></svg>